<?xml version="1.0" encoding="UTF-8"?><svg id="a" xmlns="http://www.w3.org/2000/svg" viewBox="0 0 140 50"><path d="M25.7,38.72c-5.17,0-9.7-2.72-12.16-6.77,3.15,8.76,11.73,15.07,21.8,15.07.97,0,1.92-.07,2.86-.18,4.99-2.72,8.96-7,11.19-12.16h-13.71c-2.56,2.5-6.09,4.05-9.99,4.05ZM12.91,19.22c2.25-4.69,7.13-7.94,12.79-7.94,4.51,0,8.53,2.07,11.11,5.28h13.08c-2.39-6.47-7.46-11.71-13.9-14.46-.22,0-.43-.02-.65-.02-10.85,0-19.97,7.32-22.43,17.14ZM11.01,24.55C11.01,12.3,20.62,2.2,32.89,1c-2.28-.65-4.69-1-7.19-1C11.53,0,0,11.21,0,25s11.53,25,25.7,25c3.37,0,6.59-.64,9.54-1.79-13.37-.06-24.23-10.65-24.23-23.67Z" style="fill:#231f20;"/><path d="M19.4,18.52c-2.24,0-4.02.6-5.32,1.81-1.3,1.21-1.96,2.84-1.96,4.87,0,1.9.64,3.44,1.92,4.62,1.28,1.18,2.98,1.78,5.11,1.78,2.17,0,3.91-.6,5.21-1.8,1.3-1.2,1.95-2.83,1.95-4.9,0-1.9-.63-3.44-1.9-4.62-1.27-1.18-2.93-1.77-5-1.77ZM23.04,28.92c-.95.91-2.24,1.36-3.89,1.36-1.54,0-2.79-.48-3.75-1.43-.96-.95-1.44-2.21-1.44-3.77s.49-2.82,1.47-3.78c.98-.96,2.26-1.44,3.84-1.44,1.62,0,2.89.46,3.81,1.37.92.91,1.38,2.21,1.38,3.88s-.47,2.9-1.42,3.8Z" style="fill:#231f20;"/><path d="M36.63,26.88c-.16-.21-.33-.4-.5-.56-.17-.17-.34-.31-.53-.43s-.4-.23-.65-.32v-.04c.51-.11.97-.27,1.37-.47.41-.2.76-.45,1.05-.74.29-.29.51-.62.67-.98s.24-.77.24-1.21c0-.57-.11-1.06-.34-1.48-.23-.42-.55-.77-.96-1.06s-.89-.49-1.44-.63c-.55-.14-1.16-.21-1.81-.21h-4.47s0,12.66,0,12.66h1.76s0-5.39,0-5.39h1.44c.33,0,.62.04.88.1.26.07.5.18.73.32s.45.34.66.57c.22.23.44.51.67.84l2.51,3.55h2.09s-2.81-3.81-2.81-3.81c-.2-.28-.39-.52-.55-.73ZM34.61,24.52c-.37.11-.78.17-1.22.17h-2.38v-4.59h2.41c.98,0,1.73.19,2.25.57.52.38.78.91.78,1.59,0,.38-.08.72-.23,1.02-.15.3-.37.56-.64.77-.27.21-.59.37-.97.48Z" style="fill:#231f20;"/><polygon points="43.81 30.08 43.81 25.65 49.23 25.65 49.23 24.32 43.81 24.31 43.81 20.1 49.67 20.11 49.67 18.76 42.05 18.76 42.05 31.42 50 31.43 50 30.09 43.81 30.08" style="fill:#231f20;"/><path d="M59.43,16.55h11.08v2.47h-4.32v15.64h-2.45v-15.64h-4.31v-2.47Z" style="fill:#231f20;"/><path d="M71.96,25.5c0-2.61.99-4.86,2.96-6.72s4.34-2.8,7.11-2.8,5.03.94,6.98,2.82,2.93,4.11,2.93,6.7c0,2.74-.96,5.05-2.89,6.94-1.93,1.89-4.3,2.83-7.1,2.83s-5.12-.95-7.07-2.86c-1.94-1.9-2.92-4.21-2.92-6.92ZM89.31,25.62c0-2-.72-3.68-2.16-5.05-1.44-1.37-3.21-2.05-5.32-2.05s-3.71.7-5.14,2.09c-1.43,1.39-2.14,3.06-2.14,5.02s.73,3.65,2.2,5.02c1.46,1.37,3.26,2.05,5.38,2.05,1.95,0,3.64-.7,5.06-2.1,1.42-1.4,2.13-3.06,2.13-4.98Z" style="fill:#231f20;"/><path d="M95.09,16.58h2.47v11.14c0,1.65.4,2.92,1.19,3.83.79.9,1.91,1.35,3.36,1.35s2.56-.42,3.36-1.25c.8-.83,1.2-2,1.2-3.5v-11.56h2.47v11.39c0,2.22-.63,3.99-1.9,5.32-1.27,1.33-2.95,1.99-5.06,1.99s-3.88-.67-5.17-2.02c-1.29-1.35-1.94-3.33-1.94-5.96v-10.72Z" style="fill:#231f20;"/><path d="M113.15,16.55h3.92c1.95,0,3.54.49,4.77,1.46,1.23.97,1.84,2.22,1.84,3.73,0,1.21-.4,2.28-1.19,3.21s-2.03,1.58-3.72,1.96l5.26,7.75h-2.84l-5.03-7.45h-.55v7.45h-2.47v-18.12ZM115.62,18.74v6.31c3.65.08,5.48-.98,5.48-3.17,0-.77-.21-1.4-.64-1.88-.43-.49-1-.82-1.71-1s-1.75-.26-3.13-.26Z" style="fill:#231f20;"/><path d="M138.39,18.57l-2,1.61c-.53-.55-1.01-.96-1.44-1.23-.43-.27-1.05-.41-1.87-.41-.89,0-1.61.2-2.16.6-.55.4-.83.92-.83,1.55,0,.55.24,1.03.72,1.45s1.31.88,2.47,1.38c1.16.5,2.07.97,2.72,1.4.65.43,1.18.91,1.6,1.43.42.52.73,1.07.93,1.65.2.58.3,1.19.3,1.83,0,1.51-.55,2.79-1.64,3.85-1.09,1.06-2.42,1.59-3.97,1.59s-2.86-.42-4.02-1.24-2.05-2.07-2.68-3.73l2.47-.7c.9,2.04,2.28,3.06,4.14,3.06.9,0,1.65-.27,2.25-.81.6-.54.9-1.22.9-2.04,0-.49-.16-.99-.47-1.48s-.7-.91-1.17-1.23c-.47-.32-1.21-.69-2.22-1.11s-1.79-.8-2.34-1.14c-.55-.35-1.02-.76-1.42-1.24s-.69-.95-.88-1.43-.28-.98-.28-1.52c0-1.3.52-2.4,1.56-3.32,1.04-.92,2.31-1.37,3.8-1.37.99,0,1.99.21,3,.64,1.01.43,1.86,1.08,2.53,1.95Z" style="fill:#231f20;"/></svg>